<svg xmlns="http://www.w3.org/2000/svg" version="1.1" xmlns:xlink="http://www.w3.org/1999/xlink" width="200" height="200"><svg xmlns="http://www.w3.org/2000/svg" version="1.1" xmlns:xlink="http://www.w3.org/1999/xlink" width="200" height="200"><svg xmlns="http://www.w3.org/2000/svg" version="1.1" xmlns:xlink="http://www.w3.org/1999/xlink" viewBox="0 0 200 200"><rect width="200" height="200" fill="url('#gradient')"></rect><defs><linearGradient id="gradient" gradientTransform="rotate(210 0.5 0.5)"><stop offset="0%" stop-color="#cdcdcd"></stop><stop offset="100%" stop-color="#375fe1"></stop></linearGradient></defs><g><g fill="#ffffff" transform="matrix(4.255948846768669,0,0,4.255948846768669,4.4316130423006825,130.2591717352413)" stroke="#000000" stroke-width="0.8"><path d="M1.07-14.22L5.58-14.22L8.75-4.33L11.91-14.22L16.43-14.22L16.43 0L12.99 0L12.99-3.32L13.32-10.12L9.88 0L7.62 0L4.17-10.13L4.50-3.32L4.50 0L1.07 0L1.07-14.22ZM30.48-14.22L30.48 0L27.07 0L22.03-8.85L22.03 0L18.60 0L18.60-14.22L22.03-14.22L27.06-5.37L27.06-14.22L30.48-14.22ZM38.26-4.82L36.07-4.82L36.07 0L32.65 0L32.65-14.22L38.32-14.22Q39.95-14.22 41.21-13.62Q42.46-13.02 43.15-11.91Q43.84-10.80 43.84-9.39L43.84-9.39Q43.84-7.31 42.35-6.07Q40.86-4.82 38.26-4.82L38.26-4.82ZM36.07-11.57L36.07-7.47L38.32-7.47Q39.32-7.47 39.84-7.97Q40.36-8.47 40.36-9.38L40.36-9.38Q40.36-10.37 39.82-10.97Q39.29-11.56 38.36-11.57L38.36-11.57L36.07-11.57Z"></path></g></g></svg></svg><style>@media (prefers-color-scheme: light) { :root { filter: none; } }
@media (prefers-color-scheme: dark) { :root { filter: none; } }
</style></svg>